<svg width="32" height="32" viewBox="0 0 32 32" fill="none" xmlns="http://www.w3.org/2000/svg">
<path d="M16 8.66634C16 7.70331 15.8104 6.74972 15.4418 5.86C15.0733 4.97027 14.5331 4.16185 13.8522 3.48089C13.1712 2.79993 12.3628 2.25976 11.4731 1.89122C10.5833 1.52269 9.62973 1.33301 8.66671 1.33301C7.70368 1.33301 6.75008 1.52269 5.86036 1.89122C4.97064 2.25976 4.16222 2.79993 3.48126 3.48089C2.80029 4.16185 2.26013 4.97027 1.89159 5.86C1.52306 6.74972 1.33337 7.70331 1.33337 8.66634C1.33337 10.6113 2.10599 12.4765 3.48126 13.8518C4.85652 15.2271 6.72179 15.9997 8.66671 15.9997C10.6116 15.9997 12.4769 15.2271 13.8522 13.8518C15.2274 12.4765 16 10.6113 16 8.66634ZM9.33337 9.33301L9.33471 12.6717C9.33471 12.8485 9.26447 13.0181 9.13944 13.1431C9.01442 13.2681 8.84485 13.3383 8.66804 13.3383C8.49123 13.3383 8.32166 13.2681 8.19664 13.1431C8.07161 13.0181 8.00137 12.8485 8.00137 12.6717V9.33301H4.66137C4.48456 9.33301 4.31499 9.26277 4.18997 9.13774C4.06494 9.01272 3.99471 8.84315 3.99471 8.66634C3.99471 8.48953 4.06494 8.31996 4.18997 8.19494C4.31499 8.06991 4.48456 7.99967 4.66137 7.99967H8.00004V4.66634C8.00004 4.48953 8.07028 4.31996 8.1953 4.19494C8.32033 4.06991 8.4899 3.99967 8.66671 3.99967C8.84352 3.99967 9.01309 4.06991 9.13811 4.19494C9.26314 4.31996 9.33337 4.48953 9.33337 4.66634V7.99967H12.6707C12.8475 7.99967 13.0171 8.06991 13.1421 8.19494C13.2671 8.31996 13.3374 8.48953 13.3374 8.66634C13.3374 8.84315 13.2671 9.01272 13.1421 9.13774C13.0171 9.26277 12.8475 9.33301 12.6707 9.33301H9.33337ZM23.6667 5.99967H17.5827C16 5.99967 16 3.99967 17.3334 3.99967H23.6667C24.816 3.99967 25.9182 4.45622 26.7308 5.26888C27.5435 6.08154 28 7.18374 28 8.33301V17.505C27.9997 18.3002 27.6837 19.0627 27.1214 19.625L19.6267 27.121C19.3481 27.3996 19.0174 27.6206 18.6534 27.7713C18.2894 27.9221 17.8993 27.9997 17.5054 27.9997H8.33337C7.1841 27.9997 6.0819 27.5431 5.26924 26.7305C4.45659 25.9178 4.00004 24.8156 4.00004 23.6663V17.333C4.00004 15.9997 6.00004 15.7503 6.00004 17.333V23.6663C6.00004 24.9543 7.04537 25.9997 8.33337 25.9997H17.3334V21.6663C17.3333 20.5595 17.7568 19.4946 18.5169 18.69C19.2771 17.8855 20.3163 17.4023 21.4214 17.3397L21.6667 17.333H26V8.33301C26 7.71417 25.7542 7.12068 25.3166 6.68309C24.879 6.24551 24.2855 5.99967 23.6667 5.99967ZM24.5854 19.333H21.6667C21.0809 19.3331 20.5166 19.5534 20.0858 19.9504C19.655 20.3474 19.3892 20.8918 19.3414 21.4757L19.3334 21.6663V24.585L24.5854 19.333Z" fill="#BD472A"/>
<path d="M16 8.66634C16 7.70331 15.8104 6.74972 15.4418 5.86C15.0733 4.97027 14.5331 4.16185 13.8522 3.48089C13.1712 2.79993 12.3628 2.25976 11.4731 1.89122C10.5833 1.52269 9.62973 1.33301 8.66671 1.33301C7.70368 1.33301 6.75008 1.52269 5.86036 1.89122C4.97064 2.25976 4.16222 2.79993 3.48126 3.48089C2.80029 4.16185 2.26013 4.97027 1.89159 5.86C1.52306 6.74972 1.33337 7.70331 1.33337 8.66634C1.33337 10.6113 2.10599 12.4765 3.48126 13.8518C4.85652 15.2271 6.72179 15.9997 8.66671 15.9997C10.6116 15.9997 12.4769 15.2271 13.8522 13.8518C15.2274 12.4765 16 10.6113 16 8.66634ZM9.33337 9.33301L9.33471 12.6717C9.33471 12.8485 9.26447 13.0181 9.13944 13.1431C9.01442 13.2681 8.84485 13.3383 8.66804 13.3383C8.49123 13.3383 8.32166 13.2681 8.19664 13.1431C8.07161 13.0181 8.00137 12.8485 8.00137 12.6717V9.33301H4.66137C4.48456 9.33301 4.31499 9.26277 4.18997 9.13774C4.06494 9.01272 3.99471 8.84315 3.99471 8.66634C3.99471 8.48953 4.06494 8.31996 4.18997 8.19494C4.31499 8.06991 4.48456 7.99967 4.66137 7.99967H8.00004V4.66634C8.00004 4.48953 8.07028 4.31996 8.1953 4.19494C8.32033 4.06991 8.4899 3.99967 8.66671 3.99967C8.84352 3.99967 9.01309 4.06991 9.13811 4.19494C9.26314 4.31996 9.33337 4.48953 9.33337 4.66634V7.99967H12.6707C12.8475 7.99967 13.0171 8.06991 13.1421 8.19494C13.2671 8.31996 13.3374 8.48953 13.3374 8.66634C13.3374 8.84315 13.2671 9.01272 13.1421 9.13774C13.0171 9.26277 12.8475 9.33301 12.6707 9.33301H9.33337ZM23.6667 5.99967H17.5827C16 5.99967 16 3.99967 17.3334 3.99967H23.6667C24.816 3.99967 25.9182 4.45622 26.7308 5.26888C27.5435 6.08154 28 7.18374 28 8.33301V17.505C27.9997 18.3002 27.6837 19.0627 27.1214 19.625L19.6267 27.121C19.3481 27.3996 19.0174 27.6206 18.6534 27.7713C18.2894 27.9221 17.8993 27.9997 17.5054 27.9997H8.33337C7.1841 27.9997 6.0819 27.5431 5.26924 26.7305C4.45659 25.9178 4.00004 24.8156 4.00004 23.6663V17.333C4.00004 15.9997 6.00004 15.7503 6.00004 17.333V23.6663C6.00004 24.9543 7.04537 25.9997 8.33337 25.9997H17.3334V21.6663C17.3333 20.5595 17.7568 19.4946 18.5169 18.69C19.2771 17.8855 20.3163 17.4023 21.4214 17.3397L21.6667 17.333H26V8.33301C26 7.71417 25.7542 7.12068 25.3166 6.68309C24.879 6.24551 24.2855 5.99967 23.6667 5.99967ZM24.5854 19.333H21.6667C21.0809 19.3331 20.5166 19.5534 20.0858 19.9504C19.655 20.3474 19.3892 20.8918 19.3414 21.4757L19.3334 21.6663V24.585L24.5854 19.333Z" fill="#BD472A"/>
</svg>
