<svg width="28" height="28" viewBox="0 0 28 28" fill="none" xmlns="http://www.w3.org/2000/svg">
<path d="M2.625 24.5H25.375M4.375 3.5V24.5M16.625 3.5V24.5M23.625 8.75V24.5M7.875 7.875H8.75M7.875 11.375H8.75M7.875 14.875H8.75M12.25 7.875H13.125M12.25 11.375H13.125M12.25 14.875H13.125M7.875 24.5V20.5625C7.875 19.838 8.463 19.25 9.1875 19.25H11.8125C12.537 19.25 13.125 19.838 13.125 20.5625V24.5M3.5 3.5H17.5M16.625 8.75H24.5M20.125 13.125H20.1343V13.1343H20.125V13.125ZM20.125 16.625H20.1343V16.6343H20.125V16.625ZM20.125 20.125H20.1343V20.1343H20.125V20.125Z" stroke="#1589A3" stroke-width="1.5" stroke-linecap="round" stroke-linejoin="round"/>
</svg>
