<svg width="32" height="32" viewBox="0 0 32 32" fill="none" xmlns="http://www.w3.org/2000/svg">
<path d="M6 7.74026C6 5.67457 7.7615 4 9.93443 4H19.2273C19.5751 4 19.9087 4.13135 20.1546 4.36517L25.6159 9.55691C25.8618 9.79072 26 10.1078 26 10.4385V24.2597C26 26.3254 24.2385 28 22.0656 28H9.93443C7.7615 28 6 26.3254 6 24.2597V7.74026Z" fill="white"/>
<path d="M11.2459 14.5974H16.1639M11.2459 17.4026H20.7541M11.2459 20.2078H20.7541M11.2459 23.013H20.7541M6 7.74026C6 5.67457 7.7615 4 9.93443 4H19.2273C19.5751 4 19.9087 4.13135 20.1546 4.36517L25.6159 9.55691C25.8618 9.79072 26 10.1078 26 10.4385V24.2597C26 26.3254 24.2385 28 22.0656 28H9.93443C7.7615 28 6 26.3254 6 24.2597V7.74026Z" stroke="#3062D4" stroke-width="1.5" stroke-linecap="round"/>
</svg>
