<svg width="26" height="30" viewBox="0 0 26 30" fill="none" xmlns="http://www.w3.org/2000/svg">
<path d="M1 7.00033H3.66667M3.66667 7.00033H25M3.66667 7.00033V25.667C3.66667 26.3742 3.94762 27.0525 4.44772 27.5526C4.94781 28.0527 5.62609 28.3337 6.33333 28.3337H19.6667C20.3739 28.3337 21.0522 28.0527 21.5523 27.5526C22.0524 27.0525 22.3333 26.3742 22.3333 25.667V7.00033H3.66667ZM7.66667 7.00033V4.33366C7.66667 3.62641 7.94762 2.94814 8.44772 2.44804C8.94781 1.94794 9.62609 1.66699 10.3333 1.66699H15.6667C16.3739 1.66699 17.0522 1.94794 17.5523 2.44804C18.0524 2.94814 18.3333 3.62641 18.3333 4.33366V7.00033M10.3333 13.667V21.667M15.6667 13.667V21.667" stroke="#BD472A" stroke-width="2" stroke-linecap="round" stroke-linejoin="round"/>
</svg>
