<svg width="6" height="14" viewBox="0 0 6 14" fill="none"
    xmlns="http://www.w3.org/2000/svg">
    <path d="M4.25 0.333252C3.91848 0.333252 3.60054 0.464948 3.36612 0.699368C3.1317 0.933789 3 1.25173 3 1.58325C3 1.91477 3.1317 2.23272 3.36612 2.46714C3.60054 2.70156 3.91848 2.83325 4.25 2.83325C4.58152 2.83325 4.89947 2.70156 5.13389 2.46714C5.36831 2.23272 5.5 1.91477 5.5 1.58325C5.5 1.25173 5.36831 0.933789 5.13389 0.699368C4.89947 0.464948 4.58152 0.333252 4.25 0.333252ZM3.95 4.30825C2.95834 4.39159 0.250004 6.54992 0.250004 6.54992C0.0833369 6.67492 0.133337 6.66659 0.266671 6.89992C0.400004 7.12492 0.383337 7.14159 0.541671 7.03325C0.708337 6.92492 0.983337 6.74992 1.44167 6.46658C3.20834 5.33325 1.725 7.94992 0.966671 12.3583C0.666671 14.5416 2.63334 13.4166 3.14167 13.0833C3.64167 12.7583 4.98334 11.8333 5.11667 11.7416C5.3 11.6166 5.16667 11.5166 5.025 11.3083C4.925 11.1666 4.825 11.2666 4.825 11.2666C4.28334 11.6249 3.29167 12.3749 3.15834 11.8999C3 11.4249 4.01667 8.16659 4.575 5.92492C4.66667 5.39159 4.91667 4.22492 3.95 4.30825Z" fill="#FFE659"/>
</svg>
