<svg width="24" height="24" viewBox="0 0 24 24" fill="none" xmlns="http://www.w3.org/2000/svg">
<path d="M10.5921 12.7047C10.8944 13.1093 11.2801 13.444 11.723 13.6863C12.166 13.9285 12.6558 14.0726 13.1592 14.1086C13.6626 14.1447 14.1679 14.072 14.6408 13.8954C15.1137 13.7189 15.5432 13.4425 15.9 13.0852L18.0119 10.9712C18.6531 10.3066 19.0079 9.41662 18.9999 8.49279C18.9918 7.56897 18.6217 6.68525 17.9691 6.03198C17.3164 5.37871 16.4336 5.00816 15.5107 5.00013C14.5878 4.99211 13.6987 5.34725 13.0348 5.98906L11.824 7.19407M13.4079 11.2953C13.1056 10.8907 12.7199 10.556 12.277 10.3137C11.834 10.0715 11.3442 9.92745 10.8408 9.89136C10.3374 9.85526 9.83205 9.92798 9.35915 10.1046C8.88625 10.2811 8.45682 10.5575 8.09999 10.9148L5.98807 13.0288C5.3469 13.6934 4.99211 14.5834 5.00013 15.5072C5.00815 16.431 5.37833 17.3147 6.03095 17.968C6.68356 18.6213 7.56638 18.9918 8.48928 18.9999C9.41218 19.0079 10.3013 18.6528 10.9652 18.0109L12.169 16.8059" stroke="#3857A6" stroke-width="2" stroke-linecap="round" stroke-linejoin="round"/>
</svg>
