<svg width="25" height="24" viewBox="0 0 25 24" fill="none" xmlns="http://www.w3.org/2000/svg">
<path d="M21.75 10C21.75 17 12.75 23 12.75 23C12.75 23 3.75 17 3.75 10C3.75 7.61305 4.69821 5.32387 6.38604 3.63604C8.07387 1.94821 10.3631 1 12.75 1C15.1369 1 17.4261 1.94821 19.114 3.63604C20.8018 5.32387 21.75 7.61305 21.75 10Z" stroke="#E9E9E9" stroke-linecap="round" stroke-linejoin="round"/>
<path d="M12.75 13C14.4069 13 15.75 11.6569 15.75 10C15.75 8.34315 14.4069 7 12.75 7C11.0931 7 9.75 8.34315 9.75 10C9.75 11.6569 11.0931 13 12.75 13Z" stroke="#E9E9E9" stroke-linecap="round" stroke-linejoin="round"/>
</svg>
