<svg width="32" height="32" viewBox="0 0 32 32" fill="none" xmlns="http://www.w3.org/2000/svg">
<path d="M9 4C7.67392 4 6.40215 4.52678 5.46447 5.46447C4.52678 6.40215 4 7.67392 4 9V23C4 24.3261 4.52678 25.5979 5.46447 26.5355C6.40215 27.4732 7.67392 28 9 28H16.344C17.6695 27.9997 18.9406 27.4731 19.878 26.536L26.536 19.878C27.4731 18.9406 27.9997 17.6695 28 16.344V9C28 7.67392 27.4732 6.40215 26.5355 5.46447C25.5979 4.52678 24.3261 4 23 4H9ZM6 9C6 8.20435 6.31607 7.44129 6.87868 6.87868C7.44129 6.31607 8.20435 6 9 6H23C23.7956 6 24.5587 6.31607 25.1213 6.87868C25.6839 7.44129 26 8.20435 26 9V16H21C19.6739 16 18.4021 16.5268 17.4645 17.4645C16.5268 18.4021 16 19.6739 16 21V26H9C8.20435 26 7.44129 25.6839 6.87868 25.1213C6.31607 24.5587 6 23.7956 6 23V9ZM18 25.5V21C18 20.2044 18.3161 19.4413 18.8787 18.8787C19.4413 18.3161 20.2044 18 21 18H25.5C25.39 18.166 25.264 18.32 25.12 18.464L18.464 25.122C18.3219 25.2632 18.1665 25.3905 18 25.502V25.5Z" fill="#BD472A"/>
</svg>
