<svg width="32" height="32" viewBox="0 0 32 32" fill="none" xmlns="http://www.w3.org/2000/svg">
<path d="M6.25 17.6102V24.1186L6.25813 24.405C6.33108 25.648 6.87561 26.816 7.78033 27.6702C8.68504 28.5244 9.88153 29.0001 11.125 29H18.2409L18.5269 28.987C19.2869 28.9197 19.9991 28.5867 20.5386 28.0465L28.0477 20.5276L28.2428 20.3161C28.7319 19.7306 28.9999 18.9917 29 18.2285V11.1017L28.9919 10.8153C28.9189 9.57235 28.3744 8.4043 27.4697 7.55013C26.565 6.69596 25.3685 6.22024 24.125 6.22031H17.625C17.1172 6.4237 17.1172 7.44065 17.625 7.84743H24.125L24.3687 7.85557C25.1864 7.91714 25.9505 8.28589 26.5081 8.8879C27.0656 9.4899 27.3753 10.2807 27.375 11.1017V17.6102H22.5L22.214 17.6183C20.9727 17.6913 19.8061 18.2366 18.9531 19.1425C18.1 20.0484 17.6249 21.2464 17.625 22.4915V27.3729H11.125L10.8812 27.3647C10.0636 27.3032 9.29945 26.9344 8.74193 26.3324C8.18441 25.7304 7.87474 24.9396 7.875 24.1186V17.6102C7.875 17.6102 7.6187 17.1017 6.96096 17.1017C6.30323 17.1017 6.25 17.6102 6.25 17.6102ZM22.5 19.2373L27.0224 19.2389C26.9834 19.2877 26.9411 19.3333 26.8989 19.3772L19.3898 26.8961L19.25 27.0165V22.4915L19.2581 22.2474C19.3196 21.4288 19.6879 20.6636 20.2891 20.1053C20.8903 19.5471 21.6801 19.237 22.5 19.2373ZM15.2493 6.85001L12.1179 3.71454C11.8432 3.43965 11.507 3.23443 11.1371 3.11599C10.7672 2.99755 10.3744 2.9693 9.99147 3.03361C9.60849 3.09793 9.2464 3.25293 8.93535 3.48571C8.6243 3.7185 8.3733 4.02233 8.20325 4.3719L6.9 7.05014C6.71111 7.43784 6.37619 7.73457 5.96887 7.87509L4.17813 8.4934C3.91758 8.58349 3.68421 8.73847 3.49996 8.94375C3.31571 9.14902 3.18664 9.39786 3.12489 9.66684C3.06313 9.93583 3.07073 10.2161 3.14695 10.4814C3.22318 10.7466 3.36553 10.9881 3.56063 11.183L5.10112 12.7255L3 14.8278V15.9782H4.14888L6.25 13.8775L7.78887 15.4184C7.9836 15.6138 8.22474 15.7563 8.48963 15.8326C8.75452 15.909 9.03445 15.9166 9.30308 15.8547C9.57172 15.7929 9.82023 15.6637 10.0252 15.4792C10.2302 15.2947 10.385 15.061 10.475 14.8001L11.0925 13.007C11.2332 12.5998 11.5295 12.2651 11.9164 12.0763L14.5928 10.7697C14.9419 10.5995 15.2453 10.3481 15.4778 10.0367C15.7103 9.72523 15.8651 9.36267 15.9293 8.97919C15.9935 8.59571 15.9653 8.20241 15.847 7.83206C15.7287 7.4617 15.5238 7.125 15.2493 6.85001Z" fill="#BD472A"/>
</svg>
