<svg width="23" height="23" viewBox="0 0 23 23" fill="none" xmlns="http://www.w3.org/2000/svg">
<g clip-path="url(#clip0_1596_5804)">
<path d="M10.4814 18.487H4.53839V12.5381C4.63864 12.5309 4.7532 12.513 4.86776 12.513C6.62204 12.513 8.37989 12.5166 10.1342 12.5059C10.4098 12.5059 10.5101 12.5702 10.5101 12.8672C10.4958 14.6307 10.5065 16.3979 10.5029 18.1615C10.5029 18.2581 10.4922 18.3546 10.4814 18.4834V18.487ZM6.48599 14.5091C6.48599 15.1387 6.47883 15.7325 6.49673 16.3299C6.49673 16.3979 6.65784 16.5124 6.75092 16.5159C7.13042 16.5374 7.51349 16.5267 7.89299 16.5267C8.09348 16.5267 8.29396 16.5267 8.48729 16.5267V14.5127H6.48241L6.48599 14.5091Z" fill="white"/>
<path d="M12.5508 4.51758H18.4867V10.4701C18.3864 10.4773 18.2897 10.4916 18.1931 10.4916C16.4173 10.4916 14.638 10.4844 12.8622 10.4951C12.6116 10.4951 12.5186 10.4379 12.5186 10.1732C12.5293 8.38457 12.5221 6.59953 12.5257 4.81091C12.5257 4.71433 12.54 4.62132 12.5508 4.51758ZM14.5306 8.5062C15.1535 8.5062 15.7407 8.51335 16.3243 8.49546C16.3994 8.49546 16.5319 8.37026 16.5355 8.30229C16.5534 7.76929 16.5498 7.23628 16.5355 6.70327C16.5355 6.62815 16.4281 6.49221 16.3708 6.49221C15.7657 6.4779 15.1571 6.48148 14.5306 6.48148V8.50262V8.5062Z" fill="white"/>
<path d="M4.52409 10.462V4.52734H10.4743C10.485 4.6132 10.4994 4.70621 10.5029 4.80279C10.5029 6.59141 10.5029 8.37645 10.5065 10.1651C10.5065 10.394 10.4564 10.4978 10.1986 10.4978C8.38707 10.4906 6.57909 10.4942 4.76754 10.4906C4.69236 10.4906 4.62075 10.4763 4.52051 10.462H4.52409ZM8.48731 8.49092V6.48409C7.86436 6.48409 7.26648 6.48051 6.67218 6.49125C6.60773 6.49125 6.49317 6.59856 6.49317 6.6558C6.47885 7.26035 6.48601 7.86848 6.48601 8.49092H8.48731Z" fill="white"/>
<path d="M0.532227 0.507154C1.19813 0.507154 1.83182 0.507154 2.46193 0.507154C3.6935 0.507154 4.92865 0.514309 6.16022 0.5C6.42873 0.5 6.49317 0.585854 6.48601 0.83626C6.47169 1.36569 6.48243 1.8987 6.48243 2.47106C6.3249 2.47106 6.21034 2.47106 6.09219 2.47106C5.00025 2.47106 3.9083 2.47821 2.81994 2.4639C2.55143 2.4639 2.46193 2.53545 2.46551 2.81089C2.47983 3.90195 2.47267 4.99301 2.47267 6.08049C2.47267 6.19854 2.47267 6.31301 2.47267 6.4561H0.532227V0.507154Z" fill="white"/>
<path d="M16.5498 2.471C16.5498 1.84141 16.5427 1.26547 16.5606 0.689538C16.5606 0.625148 16.7288 0.514254 16.8219 0.514254C17.4198 0.496367 18.0213 0.507099 18.6227 0.507099C19.7898 0.507099 20.957 0.507099 22.1241 0.507099H22.5V6.45604H20.556C20.556 6.33084 20.556 6.21637 20.556 6.1019C20.556 5.00011 20.5488 3.89832 20.5596 2.80011C20.5596 2.53897 20.4808 2.46385 20.2266 2.46742C19.1347 2.48173 18.0463 2.471 16.9544 2.471C16.8362 2.471 16.7181 2.471 16.5498 2.471Z" fill="white"/>
<path d="M2.47266 16.5259C2.47266 16.8765 2.47266 17.1805 2.47266 17.4846C2.47266 18.3682 2.49056 19.2518 2.4655 20.1353C2.45476 20.4823 2.56932 20.5503 2.89154 20.5431C3.94768 20.5253 5.0074 20.536 6.06713 20.536C6.18527 20.536 6.30342 20.536 6.45378 20.536V22.482H0.525061C0.517901 22.3783 0.50716 22.2745 0.50716 22.1708C0.50716 20.4036 0.51074 18.6401 0.5 16.8729C0.5 16.601 0.578763 16.5116 0.850854 16.5223C1.37356 16.5402 1.89626 16.5259 2.47624 16.5259H2.47266Z" fill="white"/>
<path d="M22.4964 22.4994C21.2254 22.4994 19.9831 22.4994 18.7408 22.4994C18.0964 22.4994 17.452 22.5065 16.8111 22.4922C16.7252 22.4922 16.5641 22.3957 16.5641 22.3384C16.5462 21.7518 16.5534 21.1687 16.5534 20.5534C16.7037 20.5462 16.8219 20.5355 16.9364 20.5355C18.0176 20.5355 19.0953 20.5248 20.1765 20.5391C20.47 20.5426 20.5739 20.4711 20.5667 20.1599C20.5488 19.0796 20.5595 18.0028 20.5595 16.9225C20.5595 16.8044 20.5595 16.69 20.5595 16.5469H22.5V22.4958L22.4964 22.4994Z" fill="white"/>
<path d="M14.527 14.5221H18.4938V18.475H16.5426C16.5426 17.9491 16.5426 17.4304 16.5426 16.9117C16.5426 16.6303 16.3982 16.4884 16.1094 16.486C15.5975 16.486 15.0891 16.486 14.5342 16.486V14.5078L14.5234 14.5185L14.527 14.5221Z" fill="white"/>
<path d="M14.5378 14.5123H12.5293C12.5293 13.8755 12.5257 13.2674 12.5365 12.6629C12.5365 12.6128 12.6439 12.5234 12.7047 12.5234C13.2919 12.5126 13.879 12.5162 14.527 12.5162C14.527 13.2066 14.527 13.8648 14.527 14.523L14.5378 14.5123Z" fill="white"/>
<path d="M14.4876 18.4831H12.5579V16.5586H14.4876V18.4831Z" fill="white"/>
</g>
<defs>
<clipPath id="clip0_1596_5804">
<rect width="22" height="22" fill="white" transform="translate(0.5 0.5)"/>
</clipPath>
</defs>
</svg>
