<svg width="26" height="29" viewBox="0 0 26 29" fill="none" xmlns="http://www.w3.org/2000/svg">
<path d="M1 6.5013H3.66667M3.66667 6.5013H25M3.66667 6.5013V25.168C3.66667 25.8752 3.94762 26.5535 4.44772 27.0536C4.94781 27.5537 5.62609 27.8346 6.33333 27.8346H19.6667C20.3739 27.8346 21.0522 27.5537 21.5523 27.0536C22.0524 26.5535 22.3333 25.8752 22.3333 25.168V6.5013H3.66667ZM7.66667 6.5013V3.83464C7.66667 3.12739 7.94762 2.44911 8.44772 1.94902C8.94781 1.44892 9.62609 1.16797 10.3333 1.16797H15.6667C16.3739 1.16797 17.0522 1.44892 17.5523 1.94902C18.0524 2.44911 18.3333 3.12739 18.3333 3.83464V6.5013M10.3333 13.168V21.168M15.6667 13.168V21.168" stroke="#BD472A" stroke-width="2" stroke-linecap="round" stroke-linejoin="round"/>
</svg>
